HIERARCHY
ROOT Hips
{
	OFFSET -0.001795 -0.223333 0.028219
	CHANNELS 6 Xposition Yposition Zposition Zrotation Yrotation Xrotation 
	JOINT LeftUpLeg
	{
		OFFSET 0.069520 -0.091406 -0.006815
		CHANNELS 3 Zrotation Yrotation Xrotation
		JOINT LeftLeg
		{
			OFFSET 0.034277 -0.375199 -0.004496
			CHANNELS 3 Zrotation Yrotation Xrotation
			JOINT LeftFoot
			{
				OFFSET -0.013596 -0.397961 -0.043693
				CHANNELS 3 Zrotation Yrotation Xrotation
				JOINT LeftToe
				{
					OFFSET 0.026358 -0.055791 0.119288
					CHANNELS 3 Zrotation Yrotation Xrotation
					End Site
					{
						OFFSET 0.000000 0.000000 0.000000
					}
				}
			}
		}
	}
	JOINT RightUpLeg
	{
		OFFSET -0.067670 -0.090522 -0.004320
		CHANNELS 3 Zrotation Yrotation Xrotation
		JOINT RightLeg
		{
			OFFSET -0.038290 -0.382569 -0.008850
			CHANNELS 3 Zrotation Yrotation Xrotation
			JOINT RightFoot
			{
				OFFSET 0.015774 -0.398415 -0.042312
				CHANNELS 3 Zrotation Yrotation Xrotation
				JOINT RightToe
				{
					OFFSET -0.025372 -0.048144 0.123348
					CHANNELS 3 Zrotation Yrotation Xrotation
					End Site
					{
						OFFSET 0.000000 0.000000 0.000000
					}
				}
			}
		}
	}
	JOINT Spine
	{
		OFFSET -0.002533 0.108963 -0.026696
		CHANNELS 3 Zrotation Yrotation Xrotation
		JOINT Spine1
		{
			OFFSET 0.005487 0.135180 0.001092
			CHANNELS 3 Zrotation Yrotation Xrotation
			JOINT Spine2
			{
				OFFSET 0.001457 0.052922 0.025425
				CHANNELS 3 Zrotation Yrotation Xrotation
				JOINT Neck
				{
					OFFSET -0.002778 0.213870 -0.042857
					CHANNELS 3 Zrotation Yrotation Xrotation
					JOINT Head
					{
						OFFSET 0.005152 0.064970 0.051349
						CHANNELS 3 Zrotation Yrotation Xrotation
						End Site
						{
							OFFSET 0.000000 0.000000 0.000000
						}
					}
				}
				JOINT LeftShoulder
				{
					OFFSET 0.078845 0.121749 -0.034090
					CHANNELS 3 Zrotation Yrotation Xrotation
					JOINT LeftArm
					{
						OFFSET 0.090977 0.030469 -0.008868
						CHANNELS 3 Zrotation Yrotation Xrotation
						JOINT LeftForeArm
						{
							OFFSET 0.259612 -0.012772 -0.027456
							CHANNELS 3 Zrotation Yrotation Xrotation
							JOINT LeftHand
							{
								OFFSET 0.249234 0.008986 -0.001171
								CHANNELS 3 Zrotation Yrotation Xrotation
								End Site
								{
									OFFSET 0.000000 0.000000 0.000000
								}
							}
						}
					}
				}
				JOINT RightShoulder
				{
					OFFSET -0.081759 0.118833 -0.038615
					CHANNELS 3 Zrotation Yrotation Xrotation
					JOINT RightArm
					{
						OFFSET -0.096012 0.032551 -0.009143
						CHANNELS 3 Zrotation Yrotation Xrotation
						JOINT RightForeArm
						{
							OFFSET -0.253742 -0.013329 -0.021401
							CHANNELS 3 Zrotation Yrotation Xrotation
							JOINT RightHand
							{
								OFFSET -0.255298 0.007772 -0.005559
								CHANNELS 3 Zrotation Yrotation Xrotation
								End Site
								{
									OFFSET 0.000000 0.000000 0.000000
								}
							}
						}
					}
				}
			}
		}
	}
}
MOTION
Frames: 14
Frame Time: 0.050000
-0.046917 0.930240 -0.243393 0.219628 7.028625 1.380707 4.462789 -0.958727 -14.183029 -9.381448 1.683422 39.423465 9.117284 20.331959 43.898596 0.000000 0.000000 0.000000 2.626174 1.616176 -14.201278 3.226408 -0.526021 -9.029235 -107.884484 -32.580499 126.428996 0.000000 0.000000 0.000000 -2.806349 -0.225975 11.199643 7.375389 -1.073259 -24.080534 1.116272 -3.831264 32.053429 0.674788 2.341855 -46.896868 0.000000 0.000000 0.000000 -24.258757 5.974266 -5.179574 -61.978929 7.613163 -14.326971 -40.316744 -46.461900 21.977340 0.000000 0.000000 0.000000 12.448583 4.423507 1.760905 60.314450 -0.320294 -9.012397 32.650047 51.569288 19.670953 0.000000 0.000000 0.000000 
-0.044309 0.926045 -0.268483 -0.268513 6.984883 0.808351 2.796743 -0.621003 -8.034301 -6.034479 0.156603 38.375048 2.083316 13.436426 36.439466 0.000000 0.000000 0.000000 2.343911 1.735796 -15.616672 3.852066 -0.545392 -8.437303 -107.869221 -32.380118 126.525967 0.000000 0.000000 0.000000 -1.903650 -0.299001 10.501988 6.747542 -0.934075 -23.940582 0.520721 -5.627610 32.180520 1.142563 1.983007 -47.145565 0.000000 0.000000 0.000000 -23.505301 5.210140 -3.999289 -63.917560 5.481755 -13.699505 -40.405970 -48.602677 23.746805 0.000000 0.000000 0.000000 13.188050 3.972675 1.224498 60.437435 -1.328937 -9.629352 34.497377 51.876228 20.426462 0.000000 0.000000 0.000000 
-0.040418 0.921278 -0.298024 -1.092422 6.988768 0.838553 1.937055 -0.211282 -2.248485 -4.052393 -0.374594 30.989862 1.617231 11.946433 29.410153 0.000000 0.000000 0.000000 2.228457 2.017844 -18.593145 4.391035 -0.558253 -6.804572 -106.094321 -31.810978 126.723643 0.000000 0.000000 0.000000 -1.087269 -0.390484 10.647459 6.897509 -0.933339 -24.489652 -0.397279 -6.882227 32.078093 1.979822 1.466055 -46.110107 0.000000 0.000000 0.000000 -23.267133 4.963839 -3.451022 -65.261218 3.370685 -12.799794 -42.052202 -51.724846 26.818503 0.000000 0.000000 0.000000 14.470433 3.682106 0.792529 60.288437 -2.205610 -10.058664 34.494187 52.656920 20.486184 0.000000 0.000000 0.000000 
-0.036020 0.916528 -0.332624 -1.628865 8.223969 1.439731 1.117263 0.022991 0.772694 -1.997339 -0.760267 23.207274 2.940546 10.871523 14.956581 0.000000 0.000000 0.000000 1.225322 2.154878 -22.598919 4.962352 -0.605846 -4.917960 -102.650370 -30.446032 127.866822 0.000000 0.000000 0.000000 -0.721101 -0.452373 10.881574 6.820165 -0.926187 -23.957183 -1.241412 -9.249522 31.918837 2.913699 1.019056 -47.014635 0.000000 0.000000 0.000000 -22.077073 3.618970 -2.072059 -66.989657 0.105157 -11.198477 -40.197341 -55.004855 28.158505 0.000000 0.000000 0.000000 15.879770 3.483020 0.257263 59.296472 -3.029112 -10.258631 35.088899 55.443424 21.641359 0.000000 0.000000 0.000000 
-0.032639 0.914415 -0.369806 -1.324585 8.426480 1.219742 0.814589 0.085945 1.460516 -2.827252 -0.367951 20.216334 3.402886 9.020843 5.726727 0.000000 0.000000 0.000000 -0.526302 2.022842 -26.222393 5.899722 -0.716493 -2.096064 -95.856895 -29.713831 127.573747 0.000000 0.000000 0.000000 -2.469658 -0.336406 12.502193 7.772259 -1.229712 -23.210388 -1.253076 -10.159776 32.202999 2.703355 1.248864 -49.524799 0.000000 0.000000 0.000000 -22.241485 3.241196 -1.582391 -66.783480 -3.922803 -8.910241 -39.366586 -58.769520 30.225963 0.000000 0.000000 0.000000 16.471819 3.736096 0.143649 59.276053 -1.663999 -9.604230 34.592900 56.763075 21.789515 0.000000 0.000000 0.000000 
-0.031206 0.914488 -0.403994 -1.520663 8.207675 0.673401 0.601042 0.024778 0.536672 -3.041709 -0.262143 19.392632 4.078348 9.162907 2.443483 0.000000 0.000000 0.000000 -2.309286 1.725987 -28.574530 8.332119 -1.041303 -0.666508 -87.521535 -29.273561 126.557295 0.000000 0.000000 0.000000 -3.897087 -0.233061 14.438505 8.809798 -1.535544 -22.940493 -0.884452 -9.404566 32.243952 2.108838 1.534865 -49.813914 0.000000 0.000000 0.000000 -21.340666 2.745978 -1.387150 -66.939481 -5.373067 -8.073882 -44.953886 -60.891416 35.289743 0.000000 0.000000 0.000000 16.008649 3.738829 0.308423 60.092681 -1.904577 -9.871783 36.790171 59.166212 24.468405 0.000000 0.000000 0.000000 
-0.031731 0.918984 -0.431245 -1.420188 7.574771 0.301219 0.255200 0.025587 0.397220 -3.257953 -0.092884 17.394016 4.270100 9.333650 1.843084 0.000000 0.000000 0.000000 -3.250469 1.574944 -29.463047 10.055367 -1.738541 7.713480 -59.026503 -37.266833 97.651021 0.000000 0.000000 0.000000 -5.455055 -0.034003 14.915902 9.863665 -1.895234 -22.381581 -0.656434 -9.214869 33.182550 -0.019625 2.286828 -51.395486 0.000000 0.000000 0.000000 -22.055578 3.030616 -1.453716 -66.726733 -6.183404 -7.735294 -49.139946 -62.872647 39.966477 0.000000 0.000000 0.000000 14.783318 5.543962 1.265913 61.316655 -1.747929 -10.142614 39.052271 61.137250 26.975581 0.000000 0.000000 0.000000 
-0.034137 0.923282 -0.453154 -1.618087 6.332828 0.811461 0.219804 -0.060446 -0.651642 -3.371955 0.038527 15.797311 4.677056 10.214114 2.105612 0.000000 0.000000 0.000000 -3.488472 1.616064 -29.153664 11.540163 -2.764199 16.937493 -20.577948 -31.568983 40.429624 0.000000 0.000000 0.000000 -6.359156 0.124128 14.031955 9.967297 -1.975056 -22.015802 -0.133754 -8.094202 33.906075 -1.426541 2.787392 -51.903312 0.000000 0.000000 0.000000 -21.982152 3.646181 -1.897088 -66.979676 -5.809127 -8.043450 -52.757396 -62.934787 42.725284 0.000000 0.000000 0.000000 13.948272 6.153840 1.703566 62.610943 -1.038923 -10.078517 40.211612 62.103995 28.535574 0.000000 0.000000 0.000000 
-0.037793 0.926635 -0.471049 -1.966937 6.847759 1.170975 0.612846 -0.078623 -0.771163 -2.980484 0.014091 13.091706 4.393898 9.528506 1.648822 0.000000 0.000000 0.000000 -3.143239 1.571701 -26.746632 11.064093 -3.881634 29.042537 -5.162694 -12.854275 -0.472370 0.000000 0.000000 0.000000 -6.258425 0.109163 13.088118 9.675230 -1.914840 -21.735931 -0.248434 -8.414525 33.969223 -1.058616 2.620035 -50.997622 0.000000 0.000000 0.000000 -21.154521 3.688044 -1.891275 -67.724481 -4.035574 -9.087042 -54.548411 -62.689995 43.896410 0.000000 0.000000 0.000000 13.505660 6.345577 1.832126 63.752328 -0.899910 -10.201167 42.999734 62.597370 30.817792 0.000000 0.000000 0.000000 
-0.042357 0.927996 -0.485611 -1.964050 6.145837 1.908614 0.826552 -0.181870 -1.994919 -3.280532 0.119922 12.180102 4.643131 10.066244 1.769823 0.000000 0.000000 0.000000 -2.182083 1.652460 -23.164513 9.124103 -3.738871 36.719878 -3.899809 -3.738082 -18.428739 0.000000 0.000000 0.000000 -6.699701 0.188144 12.302242 9.726631 -1.834364 -22.618566 -0.015538 -7.252068 34.114926 -0.821919 2.615571 -51.069017 0.000000 0.000000 0.000000 -21.974497 3.934358 -2.321046 -67.222968 -1.856825 -10.364913 -56.599419 -61.313594 43.955036 0.000000 0.000000 0.000000 13.980819 7.139506 2.353163 63.620497 -0.054415 -9.694448 42.960197 63.562692 31.629361 0.000000 0.000000 0.000000 
-0.047108 0.927113 -0.496277 -1.585157 5.571144 2.176576 0.512793 -0.260053 -2.948802 -3.257950 0.128861 12.249193 4.981944 10.655239 1.496069 0.000000 0.000000 0.000000 -1.056583 1.570217 -18.579371 6.630724 -2.348470 34.988065 -4.169069 -0.695951 -24.496937 0.000000 0.000000 0.000000 -6.698321 0.200836 11.301799 8.364065 -1.495468 -22.394428 0.420256 -6.761849 33.836104 -0.668328 2.560610 -50.683855 0.000000 0.000000 0.000000 -21.350893 4.370189 -2.606893 -67.714283 -0.349551 -11.228122 -57.465491 -59.586702 43.133717 0.000000 0.000000 0.000000 13.645095 7.595153 2.609969 64.343746 0.845526 -9.278489 43.193168 64.818377 32.680904 0.000000 0.000000 0.000000 
-0.051667 0.925893 -0.503164 -1.500789 5.412012 1.757222 0.383072 -0.243714 -2.760766 -2.809362 0.048073 11.997473 5.186445 10.872789 0.865911 0.000000 0.000000 0.000000 0.413158 1.352585 -13.662515 4.196297 -1.013378 29.192754 -4.103720 0.532357 -25.696276 0.000000 0.000000 0.000000 -6.735912 0.198463 11.151850 8.161372 -1.346172 -23.518595 0.486394 -5.345943 34.344405 0.146479 2.362228 -49.549875 0.000000 0.000000 0.000000 -21.814093 3.586604 -2.549362 -66.554723 1.030556 -11.972466 -58.580227 -58.393773 42.436638 0.000000 0.000000 0.000000 14.930669 7.508448 2.847439 63.853399 1.974220 -8.592817 43.152185 65.524542 33.626105 0.000000 0.000000 0.000000 
-0.055736 0.924734 -0.507032 -1.281904 5.106359 1.402838 0.079777 -0.303343 -3.421348 -2.411756 -0.068682 13.473151 5.458533 11.393040 0.779322 0.000000 0.000000 0.000000 0.837616 1.010416 -9.692155 3.509904 -0.568313 22.940878 -3.856202 1.306325 -24.991922 0.000000 0.000000 0.000000 -7.036304 0.217322 10.090826 7.810216 -1.254943 -23.616403 0.822871 -4.897940 34.784343 -0.365189 2.552090 -49.534769 0.000000 0.000000 0.000000 -22.115529 3.850214 -2.797715 -66.009257 1.597968 -12.278288 -61.899155 -57.056101 43.722478 0.000000 0.000000 0.000000 15.018062 7.637852 2.985437 63.613328 2.354042 -8.422369 45.643649 66.003121 35.903565 0.000000 0.000000 0.000000 
-0.059031 0.924442 -0.509265 -1.204632 5.189685 0.695176 -0.200835 -0.275539 -3.094722 -1.707419 -0.245046 14.006670 5.498798 11.446447 0.718866 0.000000 0.000000 0.000000 1.276082 0.658520 -6.078678 2.987060 -0.341395 17.882054 -3.581528 1.715544 -24.018481 0.000000 0.000000 0.000000 -6.955244 0.188335 9.503192 7.785454 -1.223614 -23.995051 1.047542 -4.547037 35.183675 -1.067838 2.812766 -48.965792 0.000000 0.000000 0.000000 -22.879410 3.569562 -2.804831 -65.427903 1.218694 -12.052330 -66.373045 -56.506765 46.491438 0.000000 0.000000 0.000000 14.566484 7.954970 3.242588 63.715033 3.127898 -8.065504 48.403258 66.160724 38.316831 0.000000 0.000000 0.000000 
